<mxfile host="app.diagrams.net" modified="2024-05-16T23:44:56.170Z" agent="Mozilla/5.0 (Windows NT 10.0; Win64; x64) AppleWebKit/537.36 (KHTML, like Gecko) Chrome/125.0.0.0 Safari/537.36" etag="9Q4AdHf3OobuuizXARG1" version="24.4.3" type="device">
  <diagram name="Page-1" id="n78--H7PAYnOjuM3yosd">
    <mxGraphModel dx="1434" dy="772" grid="1" gridSize="10" guides="1" tooltips="1" connect="1" arrows="1" fold="1" page="1" pageScale="1" pageWidth="850" pageHeight="1100" math="0" shadow="0">
      <root>
        <mxCell id="0" />
        <mxCell id="1" parent="0" />
        <mxCell id="_lsUoDMEt4TW_NxZXZ1k-42" style="edgeStyle=orthogonalEdgeStyle;rounded=1;orthogonalLoop=1;jettySize=auto;html=1;exitX=0.5;exitY=0;exitDx=0;exitDy=0;strokeWidth=2;curved=0;" parent="1" source="_lsUoDMEt4TW_NxZXZ1k-4" edge="1">
          <mxGeometry relative="1" as="geometry">
            <mxPoint x="360" y="420" as="targetPoint" />
            <Array as="points">
              <mxPoint x="300" y="540" />
              <mxPoint x="360" y="540" />
              <mxPoint x="360" y="420" />
            </Array>
          </mxGeometry>
        </mxCell>
        <mxCell id="_lsUoDMEt4TW_NxZXZ1k-41" style="edgeStyle=orthogonalEdgeStyle;rounded=1;orthogonalLoop=1;jettySize=auto;html=1;exitX=0.5;exitY=0;exitDx=0;exitDy=0;strokeWidth=2;curved=0;" parent="1" edge="1">
          <mxGeometry relative="1" as="geometry">
            <mxPoint x="420" y="560" as="sourcePoint" />
            <mxPoint x="360" y="420" as="targetPoint" />
            <Array as="points">
              <mxPoint x="420" y="540" />
              <mxPoint x="360" y="540" />
              <mxPoint x="360" y="420" />
            </Array>
          </mxGeometry>
        </mxCell>
        <mxCell id="_lsUoDMEt4TW_NxZXZ1k-40" style="edgeStyle=orthogonalEdgeStyle;rounded=1;orthogonalLoop=1;jettySize=auto;html=1;exitX=0.5;exitY=0;exitDx=0;exitDy=0;entryX=0.094;entryY=1;entryDx=0;entryDy=0;strokeWidth=2;curved=0;entryPerimeter=0;" parent="1" source="_lsUoDMEt4TW_NxZXZ1k-8" target="_lsUoDMEt4TW_NxZXZ1k-1" edge="1">
          <mxGeometry relative="1" as="geometry" />
        </mxCell>
        <mxCell id="9HKMNU7oxNg9LdKtU_---3" value="" style="edgeStyle=orthogonalEdgeStyle;rounded=1;orthogonalLoop=1;jettySize=auto;html=1;strokeWidth=2;curved=0;" parent="1" source="_lsUoDMEt4TW_NxZXZ1k-1" target="_lsUoDMEt4TW_NxZXZ1k-24" edge="1">
          <mxGeometry relative="1" as="geometry">
            <Array as="points">
              <mxPoint x="170" y="320" />
              <mxPoint x="296" y="320" />
            </Array>
          </mxGeometry>
        </mxCell>
        <mxCell id="_lsUoDMEt4TW_NxZXZ1k-1" value="&lt;font style=&quot;font-size: 17px;&quot; color=&quot;#00994d&quot; face=&quot;Comic Sans MS&quot;&gt;Encoder-only&amp;nbsp;&lt;/font&gt;&lt;span style=&quot;font-size: 17px; color: rgb(0, 153, 77); font-family: &amp;quot;Comic Sans MS&amp;quot;; background-color: initial;&quot;&gt;Transformers&lt;/span&gt;" style="rounded=1;whiteSpace=wrap;html=1;fillColor=#d5e8d4;strokeColor=#82b366;" parent="1" vertex="1">
          <mxGeometry x="140" y="340" width="320" height="80" as="geometry" />
        </mxCell>
        <mxCell id="_lsUoDMEt4TW_NxZXZ1k-2" value="" style="rounded=1;whiteSpace=wrap;html=1;fillColor=#f5f5f5;strokeColor=#666666;strokeWidth=2;shadow=0;fontFamily=Comic Sans MS;dashed=1;fontColor=#333333;" parent="1" vertex="1">
          <mxGeometry x="140" y="450" width="320" height="70" as="geometry" />
        </mxCell>
        <mxCell id="_lsUoDMEt4TW_NxZXZ1k-4" value="&lt;font color=&quot;#990099&quot;&gt;&lt;span style=&quot;font-size: 14px;&quot;&gt;List of Name of Data for a Star&lt;/span&gt;&lt;/font&gt;" style="rounded=1;whiteSpace=wrap;html=1;fillColor=#e1d5e7;strokeColor=#9673a6;strokeWidth=2;shadow=0;fontFamily=Comic Sans MS;" parent="1" vertex="1">
          <mxGeometry x="240" y="560" width="120" height="60" as="geometry" />
        </mxCell>
        <mxCell id="_lsUoDMEt4TW_NxZXZ1k-6" value="&lt;font style=&quot;font-size: 14px;&quot; color=&quot;#990099&quot;&gt;Corresponding Values of &lt;br&gt;the List&lt;/font&gt;" style="rounded=1;whiteSpace=wrap;html=1;fillColor=#e1d5e7;strokeColor=#9673a6;strokeWidth=2;shadow=0;fontFamily=Comic Sans MS;" parent="1" vertex="1">
          <mxGeometry x="370" y="560" width="120" height="60" as="geometry" />
        </mxCell>
        <mxCell id="_lsUoDMEt4TW_NxZXZ1k-8" value="&lt;font style=&quot;font-size: 14px;&quot; color=&quot;#990099&quot;&gt;Request for Information&lt;br&gt;&lt;/font&gt;" style="rounded=1;whiteSpace=wrap;html=1;fillColor=#e1d5e7;strokeColor=#9673a6;strokeWidth=2;shadow=0;fontFamily=Comic Sans MS;" parent="1" vertex="1">
          <mxGeometry x="110" y="560" width="120" height="60" as="geometry" />
        </mxCell>
        <mxCell id="9HKMNU7oxNg9LdKtU_---8" style="edgeStyle=orthogonalEdgeStyle;rounded=0;orthogonalLoop=1;jettySize=auto;html=1;exitX=0.5;exitY=0;exitDx=0;exitDy=0;entryX=0.5;entryY=1;entryDx=0;entryDy=0;strokeWidth=2;" parent="1" source="_lsUoDMEt4TW_NxZXZ1k-24" edge="1">
          <mxGeometry relative="1" as="geometry">
            <mxPoint x="296.0050000000001" y="193.66999999999996" as="targetPoint" />
          </mxGeometry>
        </mxCell>
        <mxCell id="_lsUoDMEt4TW_NxZXZ1k-24" value="&lt;font color=&quot;#ff0000&quot; face=&quot;Comic Sans MS&quot;&gt;&lt;span style=&quot;font-size: 17px;&quot;&gt;Denoising Diffusion&lt;/span&gt;&lt;/font&gt;&lt;div&gt;&lt;font color=&quot;#ff0000&quot; face=&quot;Comic Sans MS&quot;&gt;&lt;span style=&quot;font-size: 17px;&quot;&gt;Probabilistic Model&lt;/span&gt;&lt;/font&gt;&lt;/div&gt;" style="rounded=1;whiteSpace=wrap;html=1;fillColor=#f8cecc;strokeColor=#b85450;" parent="1" vertex="1">
          <mxGeometry x="196" y="220" width="200" height="80" as="geometry" />
        </mxCell>
        <mxCell id="_lsUoDMEt4TW_NxZXZ1k-11" value="&lt;font face=&quot;Comic Sans MS&quot; style=&quot;font-size: 16px;&quot;&gt;&lt;b&gt;Embedding &lt;br&gt;Processes&lt;/b&gt;&lt;/font&gt;" style="text;html=1;strokeColor=none;fillColor=none;align=center;verticalAlign=middle;whiteSpace=wrap;rounded=0;rotation=0;" parent="1" vertex="1">
          <mxGeometry x="255" y="458" width="90" height="54" as="geometry" />
        </mxCell>
        <mxCell id="YKNRxgbz3xa-b4hq1M3o-1" value="" style="shape=image;verticalLabelPosition=bottom;labelBackgroundColor=default;verticalAlign=top;aspect=fixed;imageAspect=0;image=data:image/png,iVBORw0KGgoAAAANSUhEUgAAA4QAAAEsCAYAAACbnn2RAAAAOXRFWHRTb2Z0d2FyZQBNYXRwbG90bGliIHZlcnNpb24zLjguNCwgaHR0cHM6Ly9tYXRwbG90bGliLm9yZy8fJSN1AAAACXBIWXMAAA9hAAAPYQGoP6dpAABz6UlEQVR4nO3dd5wkRcE//k93T447OxvvjrsjZwFB4UAEOSQoIogSRAk+/EBAQRQeMACS8YtiIImIIIr6CIocoEiQJBxIOkVyPC5snJynZ7p+f8xWM3Mbbm+ve2dn9/N+vfZ1ezszPbU9vdX1qaquVoQQAkRERERERDTnqM0uABERERERETUHAyEREREREdEcxUBIREREREQ0RzEQEhERERERzVEMhERERERERHMUAyEREREREdEcxUBIREREREQ0RzEQEhERERERzVEMhERERERERHMUAyEREREREdEcxUBIREREREQ0RzEQEhERERERzVEMhERERERERHMUAyEREREREdEcxUBIREREREQ0RzEQEhERERERzVEMhERERERERHMUAyEREREREdEcxUBIREREREQ0RzEQEhERERERzVEMhEREE8jn81ixYgUeeOAB3HPPPXjkkUcwNDTU7GKNEovFcM8998AwjGl/71dffRXPPPOMbdt/9913sc8+++CMM85oyu9nNSEE8vl8s4tBREQEgIGQiGhcf/jDHxAMBrHLLrvgwAMPxKGHHor99tsPvb29OOSQQ3Dfffc1u4gAagFDlu+Pf/zjtL73W2+9hQ9/+MPYe++9kUwmp7ydwcFBPPjggyiVSqMeu/XWW/H444/jmmuuwcqVK0c9bhgGHnnkkTEfm2lyuRz22msvRCIRHH/88Xj55ZebXaRpVa1W8Y9//AOrVq1qdlGIiGgEAyER0Th++9vfjjkiVa1Wcd999+GQQw7B8ccfj3K53ITSfWDlypV4/vnnAQCapk3re//1r39FsViErutwu91T2kYqlcJWW22FAw44AJ/61KdGPV4fEqvV6qjHTz/9dOy3337Ycsst8fbbb0+pDNPl9ttvx/Lly1Eul3Hbbbdhhx12wOc+9zk8/fTTEEI0u3i2O+GEE7B06VJsueWWDIVERDMEAyER0Tji8TgAYPvtt8fdd9+N+++/H7feeiuOOuooeDweAMBtt92Gk046qZnFRCaTMb8Ph8PT+t7pdBoA4Ha74fV6p7SNtWvXIpVKAQBeeOGFUY/Xh3JFUUY9vnz5cgCArut47bXXxn2f008/HZtssgleeeWVKZXTCnJ/1bvrrruwZMkS7LrrrrjppptQqVSaULLpIacWl0olvPXWW+M+7ytf+QoWL1484wM+EdFswEBIRDQOORo1f/58HHrooTjwwANx/PHH4w9/+ANeffVV7LbbbgCA3/zmN3j22WebVs76kaXpHiGU770x77vNNtvgO9/5Drbddlv86le/GvV4fUByOp2jHr/hhhuw00474YQTTsCBBx445nsYhoEbbrgBq1evxkUXXTTlsm4sVf3gtHvQQQchFAqZ/3/xxRdx8sknY7fddjND7mxz0003YYcddsDJJ5+MffbZZ8zn5PN53HLLLVi5ciUuvfTSaS4hEdHcw0BIRDQOGXbqG/HS4sWLcddddyEQCABAU0NGqwdCRVFw2WWX4ZVXXsHhhx8+6nFd183vxwqES5YswYoVK3DLLbfA4XCM+R6qqpplfPfdd6dc1o1VX77TTjsNq1atwlVXXYV58+aZP//3v/+NPffcEyeffDKy2WwzimmbffbZBy+99BJuvPHGMf+ugMbPuJmfFRHRXMFASEQ0Dnntms/nG/PxBQsW4JhjjgEw9lTH6VI/pXK8QGQXGQjtfN/1BcLJkuF9rOsQp0v9fqpUKgiFQjj77LPx7rvv4qabbsL8+fPNx2+66SZ84hOfwODgYDOKOiWFQgF33nknfvjDH6Kvr29K23A6nXC5XACa+1kREc0V09tyICJqIfLWAPXT+tY1XiAyDAOKooy65m316tV4++23EQgEsMsuu4w7SiLpug4hhNlAnqgMQONo5sqVK9HX14fOzk5sttlmY15/N9E2k8kkYrEYenp6zDA13nvXv2+lUsFrr72GQqGAxYsXo7Ozc9LvO5apBsLVq1fj+eefR3t7Ozo7O83XGoaBf/3rX1izZg0URcEWW2yBHXbYAQBQLBbN60PXJ5vNwufzrfczrFdf/vrfy+Vy4aSTTsKxxx6LH//4x7jwwgtRqVTw3HPP4cADD8QTTzwx7mdQr1AoYM2aNXC73eju7p7wuLnzzjvx4x//GFdeeSX23ntvALXP8/7778d//vMfzJ8/H0cfffR6w346ncb999+PZcuW4d577zWvB3366adx5513rrfMQO1YXbFiBaLRKDo6OuB2u1Eul1GtVvHMM89g7dq1UBQFW221FbbbbjsAG/5Z+f3+DfobICKaMwQREY2pp6dHABBf//rXx3w8l8uJrq4uAUAsXbrU/PnAwIBYsGCBOPDAA4VhGKJarYq//e1v4qCDDhIAzK/xtqvrurjpppvElltuKRRFEYqiiN122008+eSTYz7/+eefN7f5xBNPiBtvvFFss802De+16667ijvvvFNUq9UJf+dSqSR++9vfio985CMNr999993FjTfeKCqVSsPzL7jgAgFAdHZ2isHBQfGtb31LRCIR83Wqqoqjjz5arFixYtz3XLt2rViyZIk4+OCDRT6fH/X4l7/8ZXN7uVxu1OPnnXee2HbbbcUjjzxi/swwDDF//vyG32Gir3/961/i29/+tgAgLrvssgn3kRBC/P73vxeqqor9999fGIax3udLv/rVr8z3vP3228d93pNPPil6e3vN5x5xxBETbre/v1+cccYZwuVyNfxee+21l7j11lvHLOMuu+xiHhtCCPHuu++KAw44oOH1u+yyi3j//ffHfM8XXnhBHHbYYcLpdI65T7fddttRrznzzDPF9ttvL5566inzZ+VyWXR0dEzqc1JVVbz00kvizDPPFADE1VdfPeF+EaK2zxVFEYceeuh6n0tENBcxEBIRjcPj8QgA4rvf/e6Yj1900UVmQ3XZsmXmz++//37z53/729/EkiVLxmzcOp1OkUwmG7b5zDPPiC233HLcBvEll1wyqhzPPfec+Xh9iBjr6/DDDxflcnnM32fFihVi0aJFE77+y1/+csNrzj//fAFAuFyuhiA41teNN9445vvedNNNDYF2XV/84hfNxwuFQsNjlUpFqKoqAIjjjjvO/Hm1WjUD/WS+HnroIbH99tubn8srr7wyZlmFECKTyYju7m4BQLjd7nH351huu+028z1vu+22CZ/73//+V3i9XvP5zz///JjP+9Of/iR8Pt+Ev99FF1006nW77rqrecwsX75cBAKBMV97/PHHj3rtXXfdZe73+q9tttnGPH5VVW34vPL5vPm8U0891fx5sVgU0Wh00p/VU089JTbddFMBQHg8HvH222+Puw8TiYR5XAaDwQ0K70REcwWvISQiGkOxWESxWAQwesro4OAgvvGNb+DCCy8EAOy444749Kc/bT5ef9+8z372s+aKkXvssQcuvvhifO1rXwNQmzJYfy+2lStX4pBDDsGbb74JAPB6vdhvv/2w6667ms+54IILzKX7xyKv2/rQhz6EK664Arfffju+973voa2tDUDtFgfnn3/+qNe9/PLL2Hvvvc2bu8+bNw8/+MEPcP/99+Oqq64ybylx9913j3lvxnK5jEQiAVVVceihh+K6667Db37zGxx77LHmlMqvfvWreOKJJ0a9Vk7NHU/9+627eE25XB6zPKqq4sknn8S1116L888/H6effjoikQiA2uf5ve99D9dddx2uueYa3HXXXdhvv/1w8sknA6h9Lqeeeuq49wX82c9+hoGBAQDA8ccfv0HTWOvLP1a5622//fb46U9/av7/Rz/60ajnrFixAl/84heRz+fhdrtxyimn4O6778af/vQnnHnmmejp6QEAXH755ejv7294rd/vBwAkk0kceuihyGazUBQFp512GpYtW2YudLNs2bKGlV5jsRhOOeUUs/yLFi3ClVdeiTfffBOvvvoqTjnlFAC1z6B+Wux4n7Pb7cZTTz2Fa665Bt/73vdw+umnIxgMAgDa29tx/vnn4/rrr8c111yDe++9F0uWLDE/q2KxiNNPP33cz+qHP/whEokEAOB//ud/OGWUiGgszU6kREQzUX9/vzkisf3224uTTjpJnHLKKWLJkiVCURTzsVAoJJYvX97w2v/7v/9rGNGIRCLivvvuM0cnbr/9dvOx+tcedthh5s8POOAA8e677wohatMfb7nlFvOxo48+uuH9XnjhBfMxv98vfvnLX44aCYnH4+YUQVVVxcDAgPlYtVptmGJ6+umni2Kx2PC4HC1dd+rihRde2DBF8Lnnnhu1L5cvX26OYO21116jHr/sssvMbbz44oujHv/CF75gPr7ulNXBwUHzsdNOO23Ua+vttttuAoBYuHDhmI/rum6OEgIQv/71r0c9J5vNmqNZiqKI119/fcL3XNfvf/97c/s333zzep9vGIb4xCc+IQAITdPEypUrGx7fe++9BQDh8/nEs88+O+r1y5YtM9/v6aefbnhsn332aThOPR6PePTRR83HzzvvPPMxeSwK0fh57b///qOm8abTaXHxxReLe+65p+Hn7733nvm6c845Z8Lfe7vttjNHHMdSKpXE5ptvbm7vjjvuGPWcZDIpQqHQuPuOiIhqOEJIRDQGuTAGUBs9++Uvf4kbb7wRy5cvN0cjdtppJzzxxBPYY489Gl5bP/Ljdrvx4IMP4lOf+pQ5OiFH61RVNVeV7Ovrw1/+8hcAwBZbbIG//OUvWLx4MYDabRmOP/54bL311gCARx99dNxbTdxxxx1jjoREIhHccsstZvnuuusu87EHHnjAvKH7Zz/7WVxzzTVwu93m40NDQ+Zoaf3tEYAPFtMJhUJ47rnnGkYzpT322APnnnsuAODJJ5/EmjVrGh6v39fhcHjU6+Uok9PpHDVCuL7X1pOjnPJ3WZfD4cAll1xi/v+cc85BLpdreM7NN9+MWCwGADj88MOx1VZbTfieG0tRFHz+858HUFtxc9myZeZjK1euNEdcv/e975n3xQRqx9NXv/pVHHrooQCAhQsXYscdd2zYdv1INgD84Ac/aLg34Ic+9CHz+/qVTutHtc8+++yGYwUAgsEgzj//fBxyyCENP6//rCZaqAlY/2flcrkabvVy1llnjfp9rr/+eqTTaQDAMcccg4ULF074nkREcxUDIRHRGOobrzLAKYqC+fPn49RTT8XDDz+M5557rqHRPJZvfetbo0LSJz/5SZx11ln45S9/iU022QQAcP/995uPf/3rXzcbxJKiKDjppJMAAP39/ebUTgANK0m2t7ePW5addtrJDJV//vOfzZ/feOON5veXXnrpqDBZP9Vv3Ya8nC7p8XjGvT0HABx11FHm93fffXfDY7LRDkwcCNcNHpN5bT25TwuFwrjPOeyww8xgNTg42LBvqtVqwxTO//3f/53w/cZSP4Vysitk1nc4rF692vz+b3/7m7kdOYVyYGAA5513HjbffHOz7MFgELfddtuoz6f+GN9xxx1x2mmnNTxev7/rnytXZAWAgw46CNFoFIcccgh+8pOfmNMzx2L1Z3X00Udj++23B1DbL7LDA6jt52uuucb8/1Q+KyKiuYKBkIhoDPWN12XLlkHXdVQqFaxevRrXX3899ttvv0nde0/ep7Ce0+nE1VdfjRNPPNH82YMPPmh+P9bN2YHatVpSfTCoD4Tru0H8nnvuCeCDG35Xq1Xce++9AIBdd921obEv1QeJdUOMfO/1ve/WW2+NaDQKAHjnnXcaHstkMub3Y91aQQbSsQLU+l5bT75+vFEnoBa8L730UvP/V111lRlK/vrXv5pl32effbD77rtP+H5jqR/FGivgjqV+NLi+7H//+98BAIcccggymQy+9rWvYfHixfjBD36AQqEAVVVx3HHH4dVXX20Y+ZPqw9vZZ5896nhed3RUOvHEExt+91Qqhfvuuw9nnXUWNtlkE3zve99ruOZQsvqz0jStYUT3iiuuQLlcBgD86U9/Mq+nPfjgg0eNjhIR0QcYCImIxlDfEHW73XA4HBt0v7kNJafkOZ3OhpuT16tvRNeHhInuNbcuOaInG87xeNxsvO+8887rfd91g9/GvLdUH5LGWqBlokC4IQFLjjrpuj7hDc8POOAA8758/f39+OUvfwmgtpiMNNURp/rR1smOENYH6PpOATl187nnnsMWW2yB6667DsViEU6nE1/5ylfw+uuv49e//vW4x5MMhD6fD5/73OcmLGv95+7z+fDUU0/h3nvvxSmnnNIwbTaXy+Gyyy7DmWeeOWp7U/msJgqEQOOI7vvvv4/f/OY3AMDRQSKiDcBASEQ0hvrQMtmRnLGIcVY/XJccnfF4POMGz/oRm66uLvP7+lA2UdABgP/85z8APrgWsL6hP94on8/nM1ekrJ/yWP/e61sxs6+vz1yZc93rEOU+UhRlzFUgJwqE9ft3fStI1k/DXfd6s3qKouCyyy4z//+DH/wAK1aswEMPPQSgNmXy4IMPnvC9xjOVQCivLQXQMNInw9J7772HarUKn8+Hb3zjG3jnnXdw8803Y4stthh3m4VCwdwHe+6555gjdvXhfN1gpqoqPv3pT+PnP/85Xn/9dfT19TVMN77xxhvx+uuvN7xmKp9VqVSa8G9o3RHdyy+/HM888wyeeuopAMBHP/rRMUdHiYjoAwyERERjqA9Wk5kaOp7JBsJNN90UQG1a3boNaemvf/0rAKC3txdbbrml+fP6hvtE7/fGG2/g6aefBgBzRCgUCpnB5I033hjzdfLaSQAYHh5ueEy+9/p+z9tvv918zrpTYuu3MVagnSgQ1v/u64bVddUHwvWNPO2999448MADAQBr1qwxF2cBaiNOU719QX0gnExHw1tvvYU//elPAIDu7m7stNNO5mPylhLBYBAXXHABVq5ciR//+MdYsGDBmNuq/53rp2/29vaO+Xx56wcAZpgfT09PD7773e/i5ptvBlD7+7nhhhsanjPVz2qi8A40jui+8847+MIXvmA+tjGfFRHRXMFASES0HhvToJxsIDzyyCPN72+66aZRj7/77rv4v//7PwDAoYce2jCKWD+yN94IYaFQMO8Pp2kavvSlLwGohd2PfexjAICnn34a2Wx2zNd3d3cDAF588cWGn8v3nmhk8vXXXzdH3Pbaay9zYRupPhiN1fiX1/CNNT11fa8d77kTLVYi1Y88yemZm2yyCY4++uj1vnY8GzJCWCgUcMIJJ5i/15lnntnwWcvVR3Vdx0EHHYSOjo5xt/WTn/wEfr8fv/jFLwA0hkN5bee6ZOAEPpi2KoTAihUrxt3Xxx57rPn92rVrGx6z67Nad0RXflZbbrklDjvssAlfS0REDIREROu1MdcOTjYQ7rPPPuYo4dVXX42LL74YiUQClUrFvHG6DBMnnHBCw2vrp2seddRRuPjii/Hf//4XuVwOiUQCv/nNb7DHHnvg0UcfBQCcdNJJDY39/fffH0AtJHzjG99oCAvFYhHf/e53zdsbPPXUUw23jZC/XywWw5IlS3Drrbfi/fffR7FYxMqVK3HRRRdhyZIlSCaTAIDvfOc7o3739QUFWZ6NDYT1C52sex3jWHbbbbdRo5nf/OY3N+hG9Ouqf991bxRfb+XKlVi6dCmefPJJAMC2226Lb3zjGw3P+fKXv4xIJIJisYj99tsPV1xxRcNIXrlcxuOPP45jjz0WZ511FgzDwMsvvwygcb+Nty/qr1d8++23AQCXXHIJdtllF+y5557429/+Zi6+JITAm2++aa52CmDUbR7qPz+rP6v6EV3p7LPPXu9iR0REBN6YnohoLHfccYd50+vXXnttg15bf/PxF154YdKvu/POOxtuFA5AOByOhv+fccYZo163Zs2aUa8b72vfffcVhUKh4fUDAwMiEomYz+nu7hZHHHGEOOCAA8wbe9d/XXbZZeZrb7jhhkm/9+WXXz7m73366aebzxkeHh71eDAYFADE0qVLRz22YsUK87VXXHHFhPv3pJNOMp+7Zs2aCZ8rPfvss+Zr2traRDqdntTrxlP/u2Lkxu4XXHCBuOGGG8RPf/pT8fWvf13svvvuDZ97d3d3w43h6/32t78ViqKYz1UURfT09IjNNttMuN3uhvfacccdRTweF0IIUalUzNd94QtfGHPblUrFLMdee+0lhGjch/IrEAgIp9PZ8DO/3z9qHz/11FPm4z/96U8n3E/HHHOM+dxEIjGpffvYY4+Zr+ns7BT5fH5SryMimusYCImIxiCDgM/nm3SDVPrjH/9oNkz//e9/b9Brf/7znwuXyzWq0e10OsVZZ50lKpXKqNekUimz8T9//vwxw1hnZ6e44IILRLFYHPN9n376abFo0aIxXxuJRMQFF1wgent7BQCx5ZZbmq+TwTkUCpnBbd2vnXfeWdxxxx3j/s733HOPcDgcYsmSJcIwjFGPz5s3TwAQxx9//KjHcrmc2HrrrYXP5xNPP/30hPv2xBNPFADEvHnzRLlcnvC50i9+8Qvz9zj33HMn9ZqJ/PWvfx0Vnib62nzzzcVLL7004Tb//ve/i+23337cbUQiEXHWWWeNCtvd3d0CgDjyyCPH3fYWW2whAIiddtpJCFE71vbee+8JyxwMBsWdd945alupVEpsuummIhAIiBdffHHC3+moo44SAMSmm24qqtXqhM+VfvKTn5hluOiiiyb1GiIiEkIRYpLzmYiI5pjnnnsOoVCoYVn9yRgaGsLBBx+MRYsW4fe///0G3ZoB+OCG6I888giq1Sp22GEHnHPOOVi8ePG4r3n++eeRSCSwdOlSPPfcc3jmmWewZs0aaJqGbbfdFkccccR6r1kzDAMPP/ww7rjjDqxduxahUAgHHHAAjjzySPh8Przxxhs44YQT8MlPfhIXXXSR+Zply5Zhu+22w8KFC/Hggw/i9ddfx8DAAEKhEPbZZx/svffe670Os1QqweVyjfm8p556CnfffTfOOeecMa+TMwwDlUplvfv5n//8J8444wycccYZo6bdjkUIgZ133hn/+c9/4HQ68e677457C4cNkc/n8Zvf/AY33njjqGsygdqqrkuWLMEhhxyCU045pWGBlYm88cYbuOeee/Duu+/CMAxssskm2HnnnbF06dIx9819992Hu+++G9/61rdGXdcpXXfddbjwwgvxne98B9/85jcB1PbLE088gfvvvx8rVqzA0NAQNE3DNttsgz333BNHHHHEuNclTvazevjhh3H22Wfj3HPPndQ1m4ZhYJtttsGbb74Jj8eDVatWTXhNJRERfYCBkIiIaAxPPPEEPv7xjwMAvvSlL5n3uLPS4OAgXnrpJSQSCfh8PnR1dWGnnXbaqOsU56K///3vOOiggwAAJ598Mm688cYml4iIqHVMfS11IiKiWezaa681v//qV79qy3t0dXVh6dKltmx7LpmOz4qIaLbiCCEREdE61q5di0WLFqFSqWD77bfHSy+9xPvZzVDvvPMOtthiCwgh8JGPfAT/+te/ml0kIqKWwttOEBERrePPf/6zeeuDE088kWFwBrvzzjvN25+ceOKJTS4NEVHr4ZRRCwkhUK1WUalUGm7SLBsSmqbB6XRu1D3NaPLk4gWGYUAI0XCvNlVV4XK5eI+qKRBCoFwuN9wnTFEUOBwOOJ1ONpynwDAMlMvlUceow+GApmncpxYRQqBSqUDXdTNAaJo25n5+4IEHzO+POuqoaS9rKzAMA9VqFdVqddSxK/frdBy78rPSNA2f//znbX+/ZpHHrzyvAbV9raoq2xY2MAwDuq6bbYj6CXXj1Ru08WR7rb79Vr/vZf2iaRpUVeX+t4ilgVAIgXQ6DY/HM+5qcTONEALFYhHpdBrxeBxr167FwMAAhoeHkU6nkcvlkEwmEY/HEY/HkclkUCqVUC6Xoes6yuUy8vk8crkcisViw0lxPLLylg1op9MJn8+HSCSCcDiMYDCItrY2+P1+hEIhRCIReDweeDwe+P3+hud0dHTA7/fD7/fD7Xa3xD6XdF1HJpMx918mk0F/fz+Gh4eRy+XMn2WzWRQKBRSLRRQKBWSzWfN18qtcLqNUKqFUKkHX9YYG30QcDkfDvnW73XC5XOZ+ll/BYBDhcBihUAhdXV3o7u5GZ2cnurq6EI1GN3gVyelUrVYxODiIeDyOWCyGtWvXIpFImPs4m80in88jk8mY+1vu40wmg2KxCF3XUSwWUSqV1nuMO51OeL1eBINBhEIhBAIBhEIhtLW1IRQKIRwOm9+3tbWhvb0d4XAYgUAAwWAQnZ2diEQiLXEs53I5DA8PY3BwEGvWrMHq1auRSCQQi8UwODiIdDqNfD6PYrFoHuelUgm5XA6FQgG6rjcE67EoigKn0wmXywWXywWHwwGv14tAIAC/3w+v1wuPx4NwOIxIJIJQKIRQKIT29nb09PSY+1bu60AgAI/H0xL7t54QArquY3h4GIlEAoVCAalUyqync7kchoaG0N/fj6GhIfMrlUqZx/VE+1pRFNx99934zGc+AwDmDeE/9rGPYcGCBQCA//znP/jjH/+ItrY2tLW1YcGCBejs7EQ4HEY0GkU4HG6JRnmhUEA8HkcikcDatWuxZs0aDA4OIpVKIZ/Pm/VsPp9HKpVCPB4393EulzPPffUdn+PRNA1ut9v8Wrd+aG9vh8/ng9vtRigUQnd3t7kvZZ3Q0dGBaDSKQCAw6jwnhMBTTz0FAFi6dCk6Oztt229TUa1WMTQ0hFWrViEWizWc14rFonncxmIxZLNZ5HI5sz7O5/MolUrmZ7K+85psS9TXDx6PB4FAAD6fD6FQCJ2dnWY9IOvgcDiM7u5uzJ8/v2XqXskwDPN4TafTSCaTyGQyDfs1kUiYx7asiwuFAjKZDNLpNIrFIsrlMsrlsnmek0FwMlRVhcfjgdfrNdsPPp8PPp8PgUAA4XDY3OeyLREMBs12XH2brqenBw5Ha47V5PN5xGIxZDIZDA0NmfVGIpFAPB5HMpk062NZb8v2hmxDl0olFIvFSbXfJNlu8/l88Pv95j6XbeP29nb09vais7PT/Jn8LGQ9FIlEEAwGW3bfW8HSawhLpZK5rLmiKOYfgfwDkJWUPJmGQiFEo1G0t7ebDRt50vB6vWYDXZ5EZE+YHImTJyVd182DSja65B+7rBjqGwUDAwMYHBxEX18f4vH4ehtkrcLr9aKzsxOBQACRSMQMKzJYyopHnmjlyVU2KOsDan3vi2zgyF5gud+LxaJZkeZyObMRLINzNptFLBYzT4Ky0paVQqFQaPIes4aiKOjo6EB3dze6u7vh9/vR1taGaDSKSCSCjo4O83iX4d7lcpn72uPxwO12N/R2KYpiHuflchmFQsE8puW+lGFYNtJk4y0Wi6G/vx/9/f1Yu3YthoaGNqhynQkcDoe5/3w+Hzo7O83KXDZkZJCMRqNoa2uDz+czg5PH4zH3r+zFBWCOZlQqFbMDoVAoIJlMNjTQZONChg/5f3kik43kdDrd5D01NR6PB93d3WYdLRvl9XV2/Yk1FArB5/OZjcv6Y7j+mAXQMCIvR+Nkh4Ls2Emn02ZDTDYeZIO4UCiYDQh5jKdSKaRSKdvr6ptuugknnXQSAOCqq67CH/7wB1x77bVYsmQJAODYY4/F7373u3Ff73A4MG/ePHR1dZkNQrlfo9EoQqEQ3G43/H4/gsGgGYTqG/DyfOdyuRrOfXL/ynpBBoVcLmd2aMpjVJ7zEomEeb4bGBjA0NCQ2anZqgKBAHp6evCzn/0MBx98MADgkksuwbJly/Dzn/8cu+66KwDgb3/7G5LJJEKhkNmekPVCfePd4XA07F/DMMyRz0qlYp7rZHsik8mYIUMer6VSyfz58PAwUqmU2ZHcanWEpmnw+/2IRqPo7e0164n6RvS6/5f1hdfrbWhPyPbDuvWD3Lf19YOu6ygUCg0hQdbNiUTCDHvyGB8aGjI7MiYb3FqBqqqIRCJmB179uU6eB2W7IhQKmce1bEfIc57c9+u2KeRX/f6Xgxz17We5r2Xbed1ODFnPZLNZs65JpVLN3n0bTdM0M8gHAgHz/CiP8fq2tOykCoVC5uOyHVLf/pD7f912Xf1xL9sjqVTK3M+FQgHpdBqJRAKJRML8TOTXs88+a2kHpKWBMJVKoa2tzarNTStFURAKhdDb24t58+aZjUx5AMiDIhQKmT318kv2StSfYNadRiAbouseCPIrn8+bQSqTySCVSpk9K6lUygxf+Xze7AGTPbytfHIHPujVlKNDXV1dZuNIVnjyJCMbTrIxJXtDZQiorxDll/wsZMUoG6vyD1HuWzl6IwOuPKnLz0NWjvUNrFgs1hJhS55kIpEI5s2bh46OjobeNLn/g8Fgw0leNv6dTmdD54ycbisrI9n4lz2r9R0yshNAVmLymK6v6GQlKPd1K3G73ejo6MCCBQswf/58s+6Qo3MySMn9LQPBuqFVHquqqpqNUtkglZ0w8vtisWj2qspjWO5HuQ+Hh4cxMDCAdDqNbDZrNqpanTyWvV6veXKW+7a9vR3z5s0zG06dnZ1oa2szj2VZP8uQVT/Nv1wuAwB6e3vHfN9EIoFrr70WAwMDZseLHBGWHQqtRNM08zhdsGABuru7zf0q61k5qiQ7FuVX/Yi1PGblv3Kf1p/vZK+/rB9kwJKdg3LkJplMYnBwELFYzBxBSKfTGBoaGnXs7r333nj88cfH/N1effVVfOhDH5oxnb2qqqKnp8c8t8nGo5yZEo1Gzc5c2ais7zCQ5zlZD8sGP4CGukJ2FMrOVznqUj/aOzg4iGQyabYvZGfCwMAA4vF4k/fU1CmKYnZgycAaiUTMANXW1mYe27LtIM9zsoNr3XZE/fFdH6zqQ608zmUDXrYf6j8HWUfIc6KsL2RdLR9LJpMz5pidKqfTiWAwiGg0as5gkx3kchZLfSdCfXvO7Xab4VYOTNQHW+CDDjH5GdSfG2WglSFVfh+LxdDX12cOTsiv+k7efD7f5D234VKpFEKhkGXbszQQyik9cjRDDhHLhqBsJMpKSJ5U5fS1+pQse4pKpdKEfyDyujyZ5uvDWf1BJ6dRBQIBdHZ2mpVzV1eXGTpaYarPWGSgHBoaMvet7BmW+1Y2wOPxuFkRZbNZc1/LaYGTnSYhp1rKoXrZk9LV1WUGZzlSKU90cnShfoQ4GAy29P22DMPA0NAQBgYG0NfXh+HhYTPcy6/6HmP5d1DfuJ/MNEzZKKifJihParKRVt946+7uxrx588x/o9Foy0yFKBaLGB4eNqf75XI581iWjZxkMmn2HMt6Rk5lkw1OXdcnfB/ZuJIjOPIYrR+FjEajo3oB66e9ytDXKqrVqllXyP0r62A5Mle/n+s7Q2SjXfZeTma6IPDBFHl5ovd4POb0KFkndHZ2oqOjA4FAAF6v12xA1I+wyUbeTJ3WUyqVMDg4iNWrV5tTpepHOIeHh83ROblv5ZTA+gZ8/SUJ69vHcuRLzj6QU8/k8Srr356eHrOzTe7LUCjUUlMDK5WKWRcMDg4im81i/vz52GGHHRp+j3g8jquuugpvvPFGw6izDEf1o9WTvaygvj0RDAbNDmJ5vLrdbrMRLDuE5Gh7JBJBe3v7jDxm1yXbbXK6ZV9fnzn1vb6hLUeH6hvVsg0nz2+TIafDyy95PMv2nNfrNfdj/XEr9/W8efMwb948M1C0ahtOMgzDnGUlz2v1X4ODgxgeHjbbFXK/y07t9bWXx6KqqtnZK9sTsi0h22n1I2Cyzpb7vL6ukZ1KrahcLpt1RT6fN9vJ9TlGtj3kaLVsT9f/DeTzebMdsj5yLQvZlvZ4POa+lgMgsr5pa2szw7T8W1i6dKmllytZftuJ//73vygWi9h8880tOzDkaE79yZELtNinfsqMnP4FfHDxen3vJG28+lEKOXrJhYisIafE1C/AIEfjWqkxPBOtu+BCPUVRzEUXeOxOnewBr9/Hct+yXtg4ctrcuuc5uX9lXcF6YsONtSBIfTuCdYN91h1BW3dBFjnKyc/AfnJa7lgLEllRf1cqFUs7miwPhCeeeCJuvfVWXH755fj2t79t5aaJiIiIiIjmpDPOOAM33ngjvv/971uasyzvGohGowCAWCxm9aaJiIiIiIjmJJfLhXK5bHnOsjwQyutpZsPiBURERERERDOBXTnL8kDo8/kAoCVX7CEiIiIiIpqJ7MpZlgdCv98PoHbDZiIiIiIiItp4duUsBkIiIiIiIqIZrmUCIaeMEhERERERWatlpowyEBIREREREVnLrpxl3R0NR3i9XgBAoVCwetNERDPeM888gz322AOXXHIJNt98cyQSCSQSCeRyObz55pvYb7/9cOqppza7mERERNRi7MpZlgdCXkNIRHPZmjVrAADnn38+AEDRNDi9QWguLwrxPtx5550MhERERLTB7MpZlgfCYDAIAMhms1Zvmohoxlu0aBEAoOsLF8G9YDsoTg8URQEADN75fey/3bxmFo+IiIhalF05y7Ypo7yGkIjmIhn+VF8Yqsvb8JjqCWI4FmtGsYiIiKjF2ZWzLF9URha0VCrBMAyrN09ENKMJIcZ9TAu0Y83atdNYGiIiIpot7MpZlgdCl8tlfq/rutWbJyKa0WQgVJTR1avqDSLOEUIiIiKaArtyluWBUNM08/tqtWr15omIZjSzglZHV6+aP4JsJo1isTjNpSIiIqJWZ1fOsjwQyutniIjmIhkIFc056jHVEwAAJBKJaS0TERERtT67cpblgbD++pmJrqUhIpqNSqUSAEDRRq/ZpbpqN5RNp9PTWiYiIiJqfXblLFsDoTrGlCkiotls5cqVAADF6Rn1mOqtLRcdj8entUxERETU+uzKWZbfdqJ+xRtOHyWi2eaqq67C//7v/+KCCy6A1+uFx+OBz+dDMBiE0+nElf/vKvi3+Cg0X3jUa1V3bcpoMpmc5lITERFRq7MrZ1keCOsvcHQ4LN88EVFTLVu2DADwg59eD6NShqGXUS03LhLT86UfjvlaOUI4PDxsbyGJiIho1rErZ1me2OT1M6qqNqyEQ0Q0G/T29sK3eGd0HnWp+TMhDAi9DBgVCKM65uggAKhONwDguOOOwx133IF8oYBMNodMJoNcLodUMolnnl6Orbfeelp+FyIiImodduUsyy/yk8upu91uThklollneDgGjEz9lBRFheryQPUExg2DUni7vQEAD706gOWring568dq9yIkuz+MQhX44Q/HHl0kIiKiuc2unGX5CKFcct3pHL3kOhFRqxuOJ6B6u6f8+rbPnIvwIeeMeeP6pNODX992G37xi1+wQ42IiIga2JWzLB8hlAV1uVxWb5qIqOmy2QxUp3ejtjFWGAQAR6gLermMcrm8UdsnIiKi2ceunGV5IJQNGQZCIpqN8vkClJFrAa2mumtBM5vN2rJ9IiIial125SzLp4zKua1e78b1oBMRzUTFQt62QIiR2ws999xz6O7uNpeXVhQFmqZB0zRst912nE5KREQ0B9mVsywPhIlEAgAQCoWs3jQRUVMJIZDLZREc46bzVtATawAABx100LjPeeihh7B06VJb3p+IiIhmLrtyluWBMJ1OAwDa2tqs3jQRUVMNDQ2houtwBKO2bN89f1sAQMdnz4Mj3AXUX2soBFIPXY/vX3QxAyEREdEcZFfOsjwQJpNJAEA4PPHS60REraavrw8AoPnbbdm+Z5MdsOjce8d93L/b4fjnsv+Hd955B5tttpktZSAiIqKZya6cZfmiMsPDwwCAjo4OqzdNRNRU8XgcAKB6g015f80fAQBUKpWmvD8RERE1j105y7ZrCNvb7elBJyKyy8qVK3H77bdj2T33QlVVtIVD6OzsRCAQQHd3Nx5//HEAgOJqzqJZolpbbtrttmlRGyIiIpqx7MpZlgfCWCwGgIGQiFrP/p88AO+ufB/uTXeF4nDBGEpA+e9KoFJCNZtAKROHO9IN1aZFZdaHgZCIiGjusitn2XYNIQMhEbWaTDaHwG6Ho23vY8d9jhCiabd9EBUGQiIiornKrpxl+TWEuVwOAODz+azeNBGRrQqTuMdgM+8BKEcIrb4hLREREc18duUsywPhwMAAAC4qQ0Stp5DLQXU1ZzropBhVABwhJCIimovsylm2BcLe3l6rN01EZJtSqQRdLzdtwZjJMMoFOJ0uOByWz/YnIiKiGc6unGVpICyXy+ZyqN3d3VZumojIVvJmr6pr5k53F+UCfIFAs4tBRERE08zOnGVpN3MsFjMXXOjs7LRy00RElnn77beRzWZRrdamYCqKYt50vpLsa2bRJmQUs4i0tTW7GERERDTN7MxZlgbCwcFBAEA0GoWqWj4blYhoyoQQePTRR3HBhd/HP594fNznJR75FUIf/dw0lmzyjHIeoVC42cUgIiKiaWZnzrI0EA4NDQHgdFEimnnefvtt7LfffvD0bI6OQ8+FI9wFqFrtQSEAYaCSGoQjNHMXxBKVCryBGbzoDREREdnCzpxlaSCUFzp2dXVZuVkioo2mabXwF9r3K/Au2mnM57jnbT2dRdpgolKC3ztzF70hIiIie9iZsywdb5RDmRwhJKKZxul01r4Zubl7Syqk0NXF67OJiIjmGjtzlqWBUK7SFw7zGhcimlmCwSAAwNCLTS7J1IlimjMwiIiI5iA7c5algTCVSgEAQqGQlZslItpogZHbNRilfJNLMnVGMYtIJNLsYhAREdE0szNnWRoIM5kMAI4QEtHMo2kaAsEQjGK62UWZMqNcNEc6iYiIaO6wM2fZMkLIBgsRzUQdnZ0wcqlmF2NKhBColAvw+/3NLgoRERFNMztzli2BsI03TiaiGaizsxPVQmuOEAq9BFGtcgYGERHRHGRnzrL0thOyoGywEFGzFItF/Pe//8XAwAByuRxyuRzi8ThyuRyefeZpAED0U9+AoihNLumGEeUCAOCtt97C66+/jvnz58Pv97fc70FEREQbzs6cZWkgzOVyAMApTUTUNK+++io+8pGPNPzM4fFBc9Vu6B7e8ROtGaI0B1SHCxdeeCEuvPDCkR854PZ44HZ7kIgN41OHHIr77rm7yQUlIiIiq9mZsywNhOVyGQDgcrms3CwR0aT5fD4AQOfh34Vn0YegONxQNEuruqbQvEH0nvwLVHNJiHIelUwMopSHqJQgKjrwxG/w13uXQdf1D+65SERERLOCnTnL0lZSqVQCALjdbis3S0Q0afL2EormgOqeXbMVHMEOOIIdYz6mx1fjQ20Mg0RERLORnTnL0kVlOGWUiJpN3qevWsw2uSTTyyik0dPV2exiEBERkQ3szFmWBsJisQgA8Hg8Vm6WiGjSvF4vFEWB0EvNLsq0UipldsYRERHNUnbmLAZCIppVFEWBy+2BqMytQIhKkYGQiIholmqJQFipVFCpVADUeuiJiJrFHwjAKOWbXYxpJUo53gOWiIhoFrI7Z1kWCHVdN7/nogZE1EydnZ0wWvQG9FNVKWTQ3t7e7GIQERGRxezOWZYFQsMwPtioaulMVCKiDRLwB+bcNYSGXubsDCIiolnI7pxlS3JryZs+E9Gs4fN5YcyhQCiMKqp6idcQEhERzXJ25CxbAqEQwo7NEhFNSrQ9AlHKNbsY00ZUajer9fl8TS4JERER2cmOnGVZIKwfvqwf1iQimm5dXV1QiqlmF2PaiGrtQnNev01ERDT72J2zLAuE9cOXHCEkomaKRObWCCFGAqHL5WpyQYiIiMhqducsW0YIq9WqVZslItpgHo9nTl1DaIzcc5FTRomIiGYfu3OWZYHQ4XCY38v7ZBARNYPf759TgVBeQ+h2u5tcEiIiIrKa3TnL0hFCOZzJQEhEzRSJRKAXshDGHJmtYPAaQiIiotnK7pxl6SqjsjHCQEhEzSTvxycq+nqeOUuMXE+gaVqTC0JERER2sDNn2RIIdX2ONMKIaEbyeDwAAFEtN7kk00NeYM57wBIREc1OduYsSwOhvH6lVJo71+4Q0czzwQjh3AiEEgMhERHR7GRnzrIlEBaLRSs3S0S0QWRdJO/PN1fwlj9ERESzk505y9JAKO+BVS7PrV55IppZzNW45siiMopSq8rtuFktERERNZ+dOcvSQCjvgVUoFKzcLBHRBpGV5pwZIRy5PxHvAUtERDQ72ZmzbAmE+Xzeys0SEW0Qc7VNMVdGzGrXDjIQEhERzU525iwGQiKadczFVebINXWKVpsiyxWeiYiIZqeWCYTBYBAAkMlkrNwsEdEG+WC1zTkSCB21pai5wjMREdHsZGfOsjQQBgIBAEA2m7Vys0REG0QGwrmy6qbiqK08xtkZREREs5OdOcvSQCjv/cVFZYiIpo/qrk0jSafTTS4JERER2cHOnGVpIPR4PAB4H0Iiai45MjhXbtSuaE6oDidnZxAREc1SduYsjhAS0axj3o9vjgRCAHB4/EgkEs0uBhEREdmgZUYI5dzWXC5n5WaJiDbI+++/D+CDa+vmAs0XRiwWa3YxiIiIyAZ25iyHlRuTq9/wOhYistNPf/pTfOMb38CPfvQjtLW1wePxwOfzwe/3Q9M0XHLpZfAt3AGOyLxmF3XaKC4vV3gmIiKapezMWZYGQr/fD4AjhERkr3vuuQcA8L/nfQdVfexbLXQfc/mcuYYQAOBws+4lIiKapezMWbYEQi5sQER26u3thW/hDug85koIowpR1SH0EoRehDAMAALOOTQ6CABCdXJBLyIiolnKzpxlaSDs6OgAAAwODlq5WSKiBul0BsJZW21LUTUoqgY4PQDCzS1YEykOF3K8DyEREdGsZGfOsnRRmZ6eHgDA0NCQlZslImrQPzgI1RtqdjFmFMXtRyzGVUaJiIhmIztzlqWBUF7syIUNiMhOuVwOitPb7GLMKJovhKFhdsYRERHNRnbmLEsDoZzbmue0JSKyUTabg+qcO7eUmAzVG0SS9yEkIiKalezMWZZeQ+jz+QAAuq5D13U4nU4rN09EBAAYHhqEc9HcvV5wLKrLh3Qui7feegvpdBpr1qzBmjVrkMlkkMvlUCwWUSqV8P3vfx/hMPcdERFRK7EzZ9lyH0KgNpzZ3t5u5eaJiGAYBvK5LCJuf7OLMqOoniCMahVbbrml+TNF1eBwe6E63VAdLhTifdhrr73w+c9/voklJSIiog1lZ86yNBA6nU54vV4UCgWk02kGQiKyXCqVghACqifQ7KLMKN7Nd0PPcT+GKBeguLzQAu3QAhEoygdXBgze/FU8/vjjDIREREQtxs6cZWkgBIBwOIxCoYBkMmn1pomI0N/fDwDQ/G3NLcgMo7q8cPduOeFzFG8I6XR6mkpEREREVrIrZ1m6qAwAtLW1AQADIRHZQq6upbp8TS5J6xFOL1KpVLOLQURERFNgV86yPBAGArVpXNls1upNExGZI1yKm4FwQ6m+Nqzp6292MYiIiGgK7MpZlgdCr7d2b7BisWj1pomIEIvFAACaN7ieZ9K6VLePI4REREQtyq6cZXkglPfI4AghEdlBThlVXLwx/YZSXF7kcrlmF4OIiIimwK6cZXkgjEajAIChoSGrN01EhGw2C83laVg9kyZHcbhQKBSaXQwiIiKaArtylm2BMJFIWL1pIiLEYjE4faFmF6MlqU4v8hwhJCIiakl25SwuKkNELaWvrw+qP9LsYrQkxeVFsZCHYRjNLgoRERFtoJZZVCYYrC30wHtdEZEd0uk0wOsHp0RxOAEApVKpySUhIiKiDWVXzrI8ELa3twMA4vG41ZsmIkIylQKcvOXEVCgaAyEREVGrsitnWR4Iu7q6AACDg4NWb5qICMlUGgpvSj8l6sjIKqf0ExERtR67cpZti8pwhJCI7DA8PMx7EE6VqgEAyuVykwtCREREG8qunMX7EBJRS8nl8lCcnmYXoyUpmgMAAyEREVErapn7ELpcLgBscBCRPcrlkrk4Cm0YeQ0h62ciIqLWY1fOsjwQejy1nnsuWkBEdigWClCc7mYXozUptSq/Wq02uSBERES0oezKWbYFwmKxaPWmiWiOMwwDxQKnjE6ZogAAhBBNLggRERFtKLtylsPSreGDocxKpQLDMKCqlmdOIprlhBB45ZVXUC6XoWkaXC4XXC6XWQEaRV6jPCUjQVAZCYZERETUOuzKWZYHQqfzg2t7KpWKWXAiovURQuCBBx7A+RdciGf/9cy4z0s+egvCux8xjSWbJYQBAOyoIyIiakF25SzLA2F9Q8MwDKs3T0Sz2IoVK3DQQQfBO39rdH7ue9AC7YAQEFUdoloBqhWUB9+Bq3erZhe1NTEQEhERtSy7cpblgVDTNPN7BkIi2hDy2rbw/qfC3bPFmM/xbr7bdBZpVhHVCoAPrkEgIiKi1mFXzmI3MRHNGGbPl2Bnkh2EXrsG0+fzNbkkRERENFNYHgjr0yoXLiCiDeFwjExaMHhbBDuIig6AI4REREStyK6cZWsg5HUqRLQh5MXSgoHQFsbICKHf729ySYiIiGhD2ZWzLE9s9Tc8rp/nSkS0PmadweuPbSHKeWgOB0cIiYiIWpBdOcvWQMgRQiLaEB+MEFaaXJLZSVR0uNzuZheDiIiIpsCunGV5YtP12jUqqqoyEBLRBpH305GrYZK1jEoJXi8XlCEiImpFduUs2wJh/Y0TiYgmQ17bJsqFJpdkdhLlIgKBQLOLQURERFNgV86yPBBWKrWefQZCItpQXq8XAEcI7SIqJXMfExERUWuxK2dZHgiLxdoqdly0gIg2lMPhgKqqENVys4syK1ULaXR2dDS7GERERDQFduUsywNhoVCb6sVeaCLaUIqiwOvzwyhxyqgtCmn0dHc1uxREREQ0BXblLMsDYalUAgC4uZIdEU2By+0GqnqzizE76QWEQqFml4KIiIimwK6cZXkgzGazAMCFC4hoSrxeH4xKqdnFmJWEXuRN6YmIiFqUXTnLtkAYDAat3jQRzQF+vw+iXGx2MWYlo5BBNBptdjGIiIhoCuzKWZYHwlQqBYAjhEQ0NR0dHTCKmWYXY1aqlgusm4mIiFqUXTnLtkDY3t5u9aaJaA6Y39sDI5dodjFmHVEpo1LMIxaL4f3330cikYAQotnFIiIiokmyK2dZHgiTySQAcOECIpqSUCgEpcIpo1YT1Qo0txdXXHEFFi1ahPb2dni8PixYuBg77bIrurt7cPrXz2h2MYmIiGgcduUsh6VbA5BOpwEA4XDY6k0T0RzQ09MDIxtvdjFmHdXtQ89XbkAlPQBRLsIoF1DNxpDJJZAqZJEdfAHXX3sNrv3ZT6EoSrOLS0REROuwK2dZHghzuRwAcCU7IpqS+fPno5SJQQgDimL5JIY5zRHqgCM09o3pq6k+fOajWzMMEhERzVB25SzLA2EsFgMARCIRqzdNRLNIpVKBw1GrggzDQCaTQTwex9DQEES1imouCUeA1yJPF6WcZ71NREQ0g9mVsywPhIODgwCA7u5uqzdNRLPE6V8/A9dfew26e+cjm0kjn8s2LHCiOpwcHZxmolKCz+drdjGIiIhoHHblLMsDYSJRWx2QPc1ENJ5HHn4YAFDcdG84XV5E3H6obh9UTxCqxw8t2AHN39bcQs4xRqnA+8cSERHNYHblLMsDobxhIlcZJaLx7LzzTliZ19C295eaXRQaYZSLvPabiIhoBrMrZ1k6J0sIgaGhIQAcISSi8bW1tQGlfLOLQSOEENCLWa4OTURENEPZmbMsDYSlUgmFQgEA0NnZaeWmiWgWCQaDEHqh2cUgqaoDQvAaQiIiohnKzpxlaSCUS6ECvO0EEY0vEAjAKPPm8zOFUa6dYAKBQJNLQkRERGOxM2fZEgjdbre5nDwR0bq8Xi+qeqnZxaARoqoDqNXdRERENPPYmbMsDYTDw8MAeP0gEU3M4/HA0EsNt5qg5hEj4ZxTRomIiGYmO3OWpfEymUwCANrbeTNpolawZs0aVKtVBINBBAIBOJ3OaXnftrY2GNUKRKUExemZlvek8ckRQpfL1eSSEBER0VjszFmWjhBmMhkA4L2siGa4xx9/HJ/YbykWLFiARYsWob29HS6XC26PF5FoB3rnb4ItttwKK1eutOX95XLJosyFZWaEkZFaVbX0lEBEREQWsTNnWTpCmEqlAIwsKU9ETbdy5Upks1noug7DMMyf77PPPgCA6Ke/Cc0XhqEXIcoFGOUCRLmAQqWM/qf+gMWLF+Pwww9HOBxGKBRCNBpFKBSC1+uFx+PB5z73uSlVTPJaNTkyRU3GQEhERDSj2ZmzLA2E8mJHXodC1FyPPfYYvn/RxXj0kX9M+Dz/9p+AoihjPmYUM8i8cB/uX7ESil6AKOdhFDOoFPMw9DKEMLD11ltjjz322ODymYGwwkA4MzAQEhERzWR25ixLA2GxWFtG3uPhNUFEzfLee+9h3333had7M3R85mxooW4omgYodY19IaD528YNgwDQ/slT0f7JU8d8rJpLYvW1X0JfX9+UyiivVRRGdUqvJ2sJjhASERHNaHbmLAZCollG/v0F9zoWvi13t+U9DL32tz7VeezmcsnCmPiJRERERGRrzrK0OziRSAAAwuGwlZslog3wwehbxbb3qGbjAICenp4pvV6OLCqKZlmZaOPxNiBEREQzk505y9IRwnQ6DYD3ISRqJvPm4lX7AqFRzAIAotHomI/fd999OOSQQ3Drrbdi4cKFcDgccLlc0DQNiqLg0ssuh3fBtnBEF9hWRpo8ZWSqaLXKKbxEREQzkZ05y5ZFZfx+v5WbJaIN4PV6AQBGKWfbexj52kpXHR0dYz7+2GOPAQBOOOGEcbfRdeTFE17DSNNoZKSWgZCIiGhmsjNn2XJjek4ZJbJGsVhEsVhENpvFwMAA+vv7kUql0N/fj1dffRWKoiAWiyGXyyGbyyORTJoVRvyB6xHc5VO2lMvQi3A6XePeyF7Ob59/6i21W0sYVYhqpeGaQWfXZraUjTacHCGsVOwbVSYiIqKpszNnWRoIeWN6IusIIbDDjjvh7bfeGPc5Dl8Izu4tAKcbqsMNxb0QaqcbPtc8eDb9sH1l04vQ9TIWb7o5unu6EQoGEPD70dHRgVAohFt/fRsCOx8MR6jTtjKQhdTaCCEDIRER0czUcjemZyAkmpxvf/vbuPLKK3HmmWeiUqkgl8shl8thOBZDKp3B22+9Ad92+yCw3b5Q/RFo/jaobj8UpweiUoLicDdl2mVw18/AGd0E8ZX/xnC2ABHPQVTiUEqvQpTz0As6uj5y2LSXi6ZG0WqngnK53OSSEBER0VjszFmWBkK5+k17e7uVmyVqWS+88AJ23XVX3HLLLVi0aBHy+Tzy+TwymQwqlQquvPJKAMAvbv8TFIcLcHoAhwtwBaA4wwjs8im07f0laN7QqG0rzubd3kV1euDbcg/4ttzwm9LTzKOotam/uq43uSREREQ0FjtzlqWBMJ/PAwB8Pp+VmyVqWe+//z4A4MQTTxz1mKKoUFQNPSf8DK7ORdNdNKIPaLUpoxwhJCIimpnszFmWBkLZuzzeQhNEc80mm2wCAIh++ptwz98WisMF1emG4vJCUXkPPpoZVGdtZdpsNtvkkhAREdFY7MxZDIRENlq1ahUAwNWzBZyR3iaXhmgcmgNQVHzzW2djxYoVCIfDyGaziMViSKVSeO2117HPvp/A9ddd0+ySEhERzUl25ixFCCGs2pjH40GpVMJ7772HRYs4BY5mvz//+c844ogjcMstt6CzsxMulwsejwdOpxOKouC007+G1wby6PjiD3jPPZrRykMrkf33/Si/uRyAgOryQvEEAJcP+XdeAFA7GTkclvYjEhER0STYmbM4Qki0ER544AEAY18jKHUdeQnDIM14rs5FaN//FGD/U0Y9lnzy93C+/hDDIBERUZO0xJTRarUKw6jddNrlclm1WaIZbeHChVAdTsw79dbajdeNCoRehhBVYGTw3dm5uLmFJNpImr8N8fgwqtUqNI3XvhIREU0nu3OWZYGw/obGbDDQXJHJZOAOdUDzhZtdFCLbaMEOGNUq+vv7MX/+/GYXh4iIaE6xO2epVm2oWq2a3zMQ0lwRj8dr11kRzWLayDEu74FERERE08funGXLBSEMhDQb5HI5vPbaaxBCoKenBx0dHfB4Gm8G/8YbbwK+SJNKSDQ9FGftuJf3QCIiIqLmmNGB0MLFSolmhCeeeAIHH3xww8/CkXaEQiH4fD4E/AG8+MJzaPvkaU0qIdH0UN21m+CmUqkml4SIiGjusTtncck4onH09fUBAHqO+zGMfBLVfArVbBypUh7JSglGqQjPVnvBt/WeTS4pkb0UV+3G9el0usklISIiIqvZEgg5WkizwfDwMBweP9y9Wza7KERNpbr9AIBkMtncghAREc1xduQsyxaVqZ/PWn/hI1Gr6uvrgzPY3uxiEDWdomrQnC7kcrlmF4WIiGjOsTtnWRYI629YXL80KlGrqq0gGmx2MYhmBM3tQyaTaXYxiIiI5hy7c5alI4SKogAAyuWyVZslmhbFYnFUj0smk4FweMZ5BdHc4vBH0N/f3+xiEBERzTl25yzLAqGiKPB6awsPFAoFqzZLZKunn34aR3z+8/D7/XA4HNA0DR6vD51dPfjzn/+MwrsvNLuIRDODy8drCImIiJrA7pxl6aIyfr8f+Xye15lQSxgcHMSSJUvgic5HeJ8ToXr8ENUKRFWHXszBF10FzybbN7uYRDOC8AQRi8WaXYyWI4TA22+/jUqlAqfTCbfbDbfbjWAwaHZCyV7fqapUKg3TiYiIaPaxM2dZegbx+Wr3quLNi6kVlEolAEBov5Ph3WzXJpeGaGZTnR5ksuzsmywhBB566CFc+P2LsPypJyd87ksvvYQddthhSu+z9IAD8Y8HH8DeH98HnR1RBAIBRKNRhMNhvPHGGzjggANw/PHHT2nbREQ0c9iZsywNhC6XCwCvIaTWIP+gFKe7ySUhmvkUhwv5fKLZxWgZL7/8Mg444AB4erdEx2fPg+ZvgzCqQEWHqJZh6CXAqCLzxG244YYbcN11143aRi6Xw+uvvw5VVeH1euH1euH3+xEIBOB2u6HrOv7x4AOAouL5IUCseg9KpQhRzMAo5lDKxPG73/2OgZCIaBawM2dZGgidTicABkJqDXKEUNGcTS4J0cynOFzI5XMQQqBUKkHXdZRKJXNBJiEEFi9e3OxiNs2aNWuQyWRQqVRQrVbxwgu164/9ux4K/zYfG/d15aH3cMef/jxmIHz22WfxiU98YszXOZ0uuD21Ra+6j74UnoUfanjcKBew6sdfwO9+97up/kpERDSD2JmzOEJIc5a5qqhi2dpKRLNWJT2E1996Bao6/t/LY489ho9//OPTWKrme/LJJ/H9iy7GQw8+MObjsXt/hMD2Y4c6AFCdXqiqNuZjiURtRLbrqEuhaA4IvQShl2DoBYhyAYZeRLhcgrNz01GvFeUiACAQCGzor0RERDNQy4wQut21qXcMhDTT9Pf3I5/PQ9d1swd/xYoVAIBKYi3cvVs2t4BEM5x3891QeOsZtB9wGhSnG4rqgOJwQtFcgKoh/dgtuPD7F+GRfzzc7KJOm4GBAXzsYx+Dp3Mhop8+C45wNxRVq3UyKQqqmWFooa4Jt1FJ9mGgbw0+9alPYd68eQiHw/D5fAgEArj77rsBAK7uzaB5QxtUNmHUOrxkjzIREbU2O3OWpYEwGKzdxDudTlu5WaIpW758OS66+GL8/f77x33O8D1Xwb/dPtNYKqLWE9z5YAR3Pnjcx41CCo/e80O89957c2bqqAxbgb2OhX/rvUY/oXer9W7DvckOyL3yKB59YxjKf96BKOchKmUY5QLKuTR83ZvWQvcGEwCAb37rbAwPD2PRokVwOp3mqqarV6/GwoUL8eEPf3gK2yYioulmZ86yNBC2t7cDAOLxuJWbJZqSgYEB7LnnnrXe+4PPhBbqrPXeq9pIL76CanoYWnjiHnwiWj8t1A0Ac+q2Q/KeUKIy9d7a4M4HIbjzQVYVyeQIdaL7i1di5fL/w5e//OVxnyeEsPy9iYjIenbmLAZCmrU8IwsuBPb84viLOkyiB5+I1k8ZubbQvDZ3DvB4PFBVFaJs/U2CreDZZAd4NtkBlfQQhF6sTSMVBspDKxG790e45ZZbml1EIiKapJYJhG1tbQA4ZZRmBjmdS1T1JpeEaA4Yubm6YRhNLsj0URQFPn8ARmlm33vXEeps+L/iqF2HsummoxejISKimcnOnGVpIPT7/QDm1pQhmrnkxbdgICSaBrVAONumIGYyGSxfvhzPP/88kskkhoaGkEwmMRyLI5PNIptJA4/divAen292USdvZFXTSqXS5IIQEdFk2ZmzLA2EoVBtFbRkMmnlZommRNM0uNweGCPLrxORjZTZGQh/8Ytf4Oyzz4bTG4TDF4TiDUE4fVA8AaiuDng22xXezXZrdjE3iKLVTv3FIutGIqJWYWfOsjQQdnR0AABisZiVmyWaMo/HA6Gz0UM0XZSRYDhbyFXder9+O5RZcs9SxVFbtZSBkIioddiZsywNhN3dtVXm1q5da+VmicaVSqXw4IMP4rHHHkMymUQ6nUYun0c+X0ChUEA6lQQevw3hJUc2u6hEs5uoXTs42wKh7JEV5SIUt6/JpbGGMjJldC5d70lE1OrszFmWBsJ58+YBAPr6+qzcLNG4Lr74Ylx99dXwdiyA4otAOD1QHG4oDhcURwCexbvAu/lHml1Motlv5Eboq1atQm9vL9xuNzweD9xud0uHRBkIjXIB6iwJhBgZ6fzGN7+F1157DR6PB8ViEYVCrSMtHo/j3XffxcEHH4xvf/vbTS4sEREB9uYsW247kU6nYRgGVHV2TK+hmSscDsMdbEfX//y82UUhmtMqqUEAwKGHHtrwc1XT4NAccDgceP7557DNNts0o3hTZo4QlvJAMNrk0lhDdXnRc/xPkHp+Gb5/8aXQnC6oDhcUp6vWoeb2I7/qFTzxxBM477zzWjrQExHNFnbmLFsWlRFCIJfLmddeENmlt7cXpWwCwqia06CIaPppoS4AQGTpyXCEuyGqeu2rXIAwqsgu/wNuvPFG/PjHP25ySTfM/PnzAQCVzDCcHZs0uTTWcfdsAfenvwnxqbPGDHyxB27AQv19hkEiohnCzpxlaSD0eDxwOByoVCpIp9MMhGS7SCQCCAGjXIDmCTS7OERzlmfBtlh07r3jPl6Jr8adf76r5QJhNFobFTSKmSaXxB7jBT7V7UVyMIlUKoV0Oo2+vj4MDAwgm80in8+jXC5D13Ucd9xx5r2xiIjIPnbmLEsDoaIoaG9vx+DgIAYHB82eVSK7yHuyiHIRYCAkmrEUh7slLyPweDwAAKGXmlyS6aW6/Vi7ZtW4YU9RVAhhYLfddsOee+45vYUjIpqD7MxZlgZCoDaFTxaUyApCCJRKJbNhVi6XkUgkkM1mzeOMt5YgmtmqhYy5ZPZM8z8nnYRf3Xwz9lu6FPl8Afl8AelMGvlcHqVyLQg62nqaXMrpFdz5YLgXbIdqehiqJwDN3wbVH4Hq8kFxuiDKBaz6yVE46aSTsOeeeyKRSGDVmrXo7+9HqVhC1agCwsBTTz6Jrbbaqtm/DhHRrGBXzrI8EHZ11a4j6e/vt3rTNEcd/cVj8cc//B6hcBuKxSLKpcbwp7m9UJyeJpWOiCZDlAto6wo15b1vuOEGnHbaabj++uvh8/lQKBSQzWaRTCZRKpXwq5tvBgA8vboExemBooWgdmwKpdcNRXOiTXXA1b1ZU8reLKonAM+C7cd9XHH74evZDK+++ipWpg0Ilx+qPwKtZ1comgvQNORfuAc/+9nPcO21105jyYmIZi+7cpblgVDeI2NoaMjqTdMc9dST/wQAqDsfBr/DhaDbD9Xjh+LyQnW4oQXa4QjNzJEHIqoRegFt4S5btv38889jt912w+23346tt94aQggYhoFKpQLDMHDaaacBgPmvomrQXB44vAEoDhfcnYvQ8fnvwxHqtKV8s1XHl38MGFXzRvfrEqU8rrvuOpx77rkolUqoVCqoVqswDANCCADAjjvuyIVriIgmya6cZXkgDARq13Fls1mrN01z1Babb4G4fzHCe3y+2UUhoilSKkXz/GC1lStXAgCOPfbYcZ/T8Zlz4Nn0w1BdXiia5ae+OUlRNWCC1Z1FVQcALFy4cNznPPDAA/jkJz9pedmIiGYju3KW5WdFueJNOp22etM0R5XKZUCwB5molemJftx2223YbrvtEA6HEQ6HEQgE0NXVhba2NnR1ddVWDZ6CTTap3Q4ievAZcHVvDkABFACKBkVVAUWFIzKPI1HTzLNoZ2Sevwcdh30bmjcIKGrtM1EUQFGQevhGnH/Bhdh///352RARTYJdOcvyQBgOhwEwENLkPfbYY9h3331x+eWXY8GCBUgkEhgeHsbw8DAKhQKeeeZptC09pdnFJKKN4N90ZyT/8zDOv+gyVIo5CGE0PB5pj+K1V18xr4/YEIZR25arZ0u4uja1pLy08Xxb7j7hrUgCexyJZ/58KV599VVst91201gyIqLWZFfOsjwQytsA5HI5qzdNs9Rzzz0HAPjOd74DAFAdLjj9IWi+MOBwwT1/e3i33KOZRSSijRQ++CyEPvk1KA4nhBAQehFGuQAjn0LxvRVIPHIzMpnMuIFQCDHuKNL7778PAONey0YzkxasXfv97LPPQlEUOBwOuFwuOJ1OOByOKXUOEBHNZnblLNumjGYys/MmvmS9nXfeGQDQc9zVcHUuZqOOaJZSHM7av4pSWxTK5QUC7dBjqwEA2267HXyBANrb2xEOhdDREUVvTw8SiQTuvfdeHHjgQTj66KPg8/ngdrvh9XrhdDpx6WWXw7dwBzjbee/bVlJN15ZNP+GEE8Z8/Omnn8buu+8+jSUiIprZ7MpZDITUdF6vF0DtxtUMg0Rzj3eLj6L7i1dCH3oPRimPWCGDoVIOb6zMAq89D1TKAIC///1+/P3v94+5ja6jL5vOIpMFtFBtBDD66W/C0dYNGAZEtQIYFaQf+SX+31VX4U933tnkUhIRzRwtEwhl475QKFi9aZql+vr6AIAr/xHNUarTDc8mO8CzyQ7rfa6o6hB6CaJagaiUIYwKYFThaF8wDSUlK7l7thj3GkM9vgZ/uetXKBQKZruCiGiusytn8RpCmhbXXXcdzjrrLNxzzz0Ih8PQtNpKc4qi4LLLr4Bvk+3hiMxrdjGJaIZTNCcUzdnsYpDNFKcbAOB2u5tcEiKimaNlriH0+XwAgHw+b/WmaQY777zz8IMf/ACXX345IpEIPB4PPB4PvF4vHA4Hvva1rwEADjrooDFf33XkJVx2nIiIAACiXIDH64Oqqs0uChHRjGFXzuKN6WlS0uk0NE0zeybW9cMf/hAAcOElV4y5pDwARA8+E+5520CIKiAMQIiRlQNVOLlUPBERjdBjq5HPZbHLrrshHAqhLRxCKBRCNBpFIBCAz+fDaaedZi7BTkQ0F7TMjekZCGeffD6PTTfbHPHYMLx+P9ra2tHb04NQMIBAIACv14NqtYqOz5wN/3b7QggBGNXa9T2Vci0cCgOOkSXGiYiIJuKevy2y/3kAb+oRiP4SxKo1UMpvQhSzEHoBxeQQdt99d+y3337NLioR0bRpmUDodNau7dB13epNk00SiQSWL1+Ol156CR6PB4FAAF1dXQiFQvD5fIjH44jHhuHf/hNwdW2GXDGD17MJiP4ihN4PparDs2A7uBfUFoRQFAXQHLVFYty+Jv92RETUagIf+iQCH/rkmI8Jo4r3f3gY3njjDQZCIppT7MpZlgdCl6t224BqtQrDMDj/vwVcdtll+NGPfgSHxw9RraCql8Z8XnC3z8Lds8U0l46IiOgDRjELCMEb1xPRnGNXzrJthBCopVeuEDbzVSoVeLsWovOE66AoCoRRhZFPwyjnIfRibXl3owpnlMu6ExFRcxmFNACgo4OXIRDR3GJXzrI8EGqaZn5frVat3jzZQNf12lLuI6t8KqoGLRCBhkiTS0ZERNRIVMoAaoudlctls8eciGi2sytnWR4IeeuAmef555/Hz352Df54xx1wu93w+vxoawsjHA7D7/PiHw8/DAAQwoCicIovERHNXDIQfuYznwEAuD3e2m2OfH54vbXbHe2y88647de38rIVIppV7MpZihBCWLnBdDptLgOdy+XM+2VQc8jPwxXugneHpVA0Jwy9BFHKwigXIPQyKvHV8G2+G8L7nNDs4hIREU3I0IvQY6thFNKoZuMwSnmISglCL0FUyiiufhmV/jcRi8XQ1tbW7OISEVnGrpxl+QihYXxw/7n6YU2ynxACr7zyCkqlEjRNg6qq5rK0vl0OQXj3zzW5hERERBtHdXomXOBs6K7LoYs3cPQxx2CLzTdHJBJBW1sb3G43XC4XXnvtNey777449NBDp7HUREQbz66cZfkI4dDQkLnyV7Va5XSNaSCEwAMPPIDzL7gQz/7rmXGft+jce6exVERERNOvWsgg/+pjKL75NFBMwShmUSnmYOhlGNWK+TyLmz9ERLazK2dZPkJYKtVuWeBwOBgGp8mKFStw0EEHwTt/a3R+7nvQgh2AUQWEAVHRUR54Cy7eLoKIiOYAzRtE8MOHIPjhQ0Y9VkkPYc0NJ+K3v/1tE0pGRLRx7MpZtgVC3m5i+shezvD+p445jcaz6EPTXSQiIqKZR9SmW112xZUAgMWLF5uXWCiKAlVVsWrVKixcuBAf/vCHm1lSIqJR7MpZlgfCXC4HAPD7/VZvmlALf9VqFaVSCblcDvl8Hq+//joAoJJYyxvHExERjcMR7kb3F6/EyuV/wJe+9KUJn8sppUQ009iVsywPhIVCAQDg9Xqt3vSc9vLLL+NHP/oRbr/9dyiXS2M+Z3jZ/4N/249Pc8mIiIhah2eTHeDZ5FJU0oMQ5RKEqF1iAQGUB95G7G8/xW233dbsYhIRjWJXzuKU0Rax6267Qbj88H708wgGO6A4nFCcXihONxSHE9X0MBxtPc0uJhERUUtwhLpG/3DkHl9bb731NJeGiGj9WmbKKAOhPRRFhe8jn0Not882uyhERESzk1JbpOH/O/kUnPu/56Cnpwf5fB65XA6FQgHxeBxbbbUVDjlk9II1RER2a5lAyCmj9tA0DaJuuWwiIiKylrNjIbqOvgxvLf8jjj322HGfVygU4PF4Gn5WqVRQLpehquqox4iIrNAyU0a5qMzUFAoFPP3003juuecwODiIWCyGfD6PVCqFeDKFXDYDPHoLwrsf0eyiEhERzUqKosC7aCd4F+2ESmoQQhhQHe6RyzNcSDxwHXIv/wOfOfRQOB0O9PUPYHBoGLHhIZSKtYZaV08vXvr3CvNeYUREVmmZRWXi8TgAIBKJWL3pWe2uu+7CscceC4fbB2cwAsUTBBxuCKcXqtsPz6Kd4N3io80uJhER0ZzgCI8OdOF9ToCjYxGefGcFoDqg+TqhLtgMvq0iCLh9qKQGMPjUH7B8+XJEo1Gk02nkcjkkk0kMDAygUCigVCrhggsuQCgUmv5fiohaml05y/JAGIvFAADRaNTqTc9qHR0dAIDuE6+BI9zd5NIQERHRujRfGKGPHIbQRw4b8/Hy0EpknrkThx22zuOKAlegDarTjWK8Hx/96Edx5JFH2l5eIppd7MpZlgfCdDoNAAiHw1ZvelbSdR2Dg4PmfjPKhSaXiIiIiKbC1bkIPV+5DkYhDcXth+r2Q3W6obi8UFQNADB469fw0EMPjRsIq9UqNE2bzmITUYuwK2dZHgiTySQAcCrEGK6++mp861vfwh5L9kQ8kcBAfz/SqaR581vN6YLq8jW5lERERDRVzvb5AOaP+3hFr+Cmm27CM88+j3w+h0KhiHw+h2Ihj1KpBKNaxd///ndss8020HUd5XIZ5XIZ1WoVQO06x5133hnKyC0yiGjusCtn2RYIeQ3haA899BAA4KW0G6p/C2gf+ggivjC0QDtUhxtaoH3MaxaIiIhodvBt8zGknvoD3hFdUEJuKO0uqC4vPJoTXqcb8Qeux4EHHjjhNn71q19h9913h8fjgdvthtPpRCgUgtvtZlAkmsXsylmWB8JsNgsACAaDVm+65YXDbfDN3wodh3yr2UUhIiKiJmjb+0to2/tL4z5eLaSRefYuRA85G6rDDWgaFNUBjEw5Hf7TRfjKV74y7utfeukl7LDDDpaXm4iaz66cxfsQWuif//wn9t57b1x11VWYP38+crkc8vk88vk8dF3HsnuWwbkzbyxPREREY2vb82i07Xn0uI+H9/0KYvf+CB2fOQeqLwxUKxBGBUa5gNi9P8KOO+6Ijs5uBIIBtEfa4fN54fV64HK6UCwWsO+++yISiWD+/Pno6upCb28v5s+fD5fLNY2/JRFNRcvchzCVSgGYm9cQrly5EgBwzjnnmD+rXRfogao5IBw+tO2wX7OKR0RERC0usP0nENj+E2M+VomvQeqpP6C8+ccRN6oYLmZhxEpAJYtKNoby2tfx8MMPQ9UcMKqVUa/fcadd8O8Xnx932qkQYsZPSdV1HcViEYVCAcViEbquwzAMhMNhDA8Po1QqmWs3ALVrMjs6OlAul2EYBrxeLzweD/x+Pzwez4z/fWlusStnWR4IM5kMgLkZCD/96U/jkUcega93c2hu30glUqtIBICqIVA1BPSqAb1qjHwvUDEMFHUDqYKOTFFHvlxFuqAjV64gW6wgVdBRqhgoVQwUylVkijpy5WpTf1e7eJ0a2nxO+FwavC4NAbcDXqcDHqcKj1ODx6nC53Ig4K79zOuq/evUVLg1FW6nCoeqQlMVODQFmqpAVWpf9VW6AKBXDRT1am3f6lUUdAOlShV61UChbCBb0pEuVMz9LT+TWLaMWK6MqiHG+zVmLEUBon4XQh4nvC4NXqcG/8i+DHpq+93vcsDnru17n8sBt0OFQ1Pgdmjm905NhVZ3khQAKoYBvVI7vksVA7lSBdlSxfw3XdCRLVWRKelI5XVkSxVkihUk8+VZcTyHPA50hzwIepxo9zsRDbhHjlMNLodaO6adtX3odWlwOzQ4R45Rp1Y7Zuv3qSEEKoZAuWKY9Ua5YqBiCJQqBvLlCvLlKgp6FSW9drymCjpypVodkSpUMJQpIl0c3eibLVQF8Lsc8Lg0+Fwaon43OoNuRP0utAdciPpdCLgd8Lsd8Ls0OB0jdYOqmvVB/X6ujOznfLmKbLF27KaLtf1a0Ktm3VyrqysYSBdRqhhN3Qcby6kp6Ap6EA24zOPV69Tgc2vwODSEfU6Evc7az0bqZaemwqWpDXXsusdu1RCoCoFKVaBUqdWz5vGr1+qHTKl2fiuUKyhXDGRLVQxnS0jky0gXdeRLVVRasJ4dj0NV4JPnNZdm7uvOoBshrxP+kZ/5XA743VpD3SHrC5dDbTh+BUaO4apAUa+i+KUPo6j/ELlSrX4o19UVuXIFsWQGyZKondOSCcRjMaSH+6Fn4sj++3689O8Xse32O2CLzTZDMBiAz+dDe3s7vF4v4vE4rrvuOhx22GE45phjzOsXPR4PHA4H3n//fWy22WbYfffdx/z91xcm8/k8vF6v+RzDMNDf34++vj6kUikMDQ1hcHAQyWQS8Xgcw8PDGBoaQi5fQDKZwn9f+re5La/Xi66uLkQiEUSjUYRCIXi9Xni9Xvh8Pni9XoRCIQQCAfP3cLlc8Hg8cLlccDqdcLlccDid0FQViqLA5XJB07TaCrAj7Qp15LFcLmdu1+l0wul0wufzwePxQNM0lEoluFwuqKo6pX0zkfW9tlwuw+l0NjxH13UMDQ0hHo9jcHAQqqqir6/PnNmWTCYRi8VQLBZRLpdx9dVXj7pmzTAMCCGQSCTM+2uWy2UzgKuqimg0ikKhACGEuV9cLlfDPnY6nVP6vecqu3KWIuq7SSzw4osvIpfLYeedd0YgELBy0zOeEALVahWVSsVcDQyA+UeoaRqcTue4FcKGMAyBbKmCWK6MwkhlnyroiOfKZuM7ntcRz5aQ12uNm0yx1rhJF3UUylXoVWtPtAG3A9GAC2Gv02yAtfvdCHtrQcPjVOF3OxDyOBH0OBD0OM2TnjxJBj3WVQyGYaBSqZiVlmF80HBTVdWs3KcqmS9jKFNCIq9jIF3EcLaEoUyp1pgsVRDPlc3PJD3SgCxXrWk8OlQFXmetceZz1RoQHqeGkNeBiM+F7pAb0YAbPSEPOgJudAXdCHkdaPO54NQ27vgTQqBcLqNS+SBoKIoCh8Mx6qQzWVVDIFeqIFeuIJErYzhbRjJfRiJfa4gn82XEsmXkyhXkS7X9m8jryJZ0JPO6JY1y50jorYVkDUGPsxaevbXwHPQ44Hc5zGO3zedEd8iDNq8TnUE3/O6p968ZhmH2TkuqqsLhcEDTtI3uoc7J8F0om3XBULY0Ehx1xHM6inq1LqBXUChXkStVaw1ziwO7Q1Xgc9cauUG3A+1+10hHkANup4p2X22/e5wqvE4HQl4Hgm4HvC4Hon4Xgp7a8R5wO6Cqk983QghUKhXouv7B6s6atlH7udbRUUFi5BgdzBQxnCkjr9fq5aJuIDuyX9PF2rFa1GvHcEGvNdhLFQMbeyZ2O9TaMep2wOeqHb/y2Gz3u9AZdCPiq4W+sNeJkLd2DHcE3FN+T8MwUK1WUa1WRx27cr9u7LFb0qtIjtSjuVIFyYKOgVQRuXIVRb1aO05HzoHpgo5kQR85ditmcLeq3gUAz8jxKTvQPCOdPAFPrX5t9zsRcNdCdJvPiZCn9hnMa/PA59q4Pnh5/MrzGlDb16qqblTbwjAE4vkyhjJF9PcPIBMbRDKZQF9/Pwb6+5GMDSGbSSMdH0IyHkMqlUIul0M2m0U2m4Wu6w3b+8tf/oIFCxZACAEhBHRdx9tvv43jjjsOn/vc53DIIYegVCohn8+jUCgglUrhjTfewN133w23x4OFixZD13VUKzqCgQAikQiCwSDa2toQDAYR7epFZ08vNtlkIaKdnQj4/Qj4PAi4HWiLtCMUtKbtaRiGGW7k7yJtbL1Rr1wuI5FIoFKpwOl0olKpmJ91MpnEDTfcgF133RX77LOP2b6UwWvVqlU48sgjccwxx+Dwww9HKpVCJpNBIpFAsVjEypUr8cc//hGLFi3G1ltvhVVr+jA0NIjY0CDGa/473V509MxDW1cvwm3tcBTiCIVC2HqbbSEEoKoKnE4HvB4PAoEAwuEwIpEIFixYYH5WnZ2dcDimdrzL9lp9+62+rLJ+0TTNDORTfZ9WHP297LLL4HK5cNJJJ1m6sIylgVAIgXQ6bfawtMKOFkKgWCwinU4jHo9j7dq1GBgYwPDwMNLpNHK5nNkbFY/HkclkGnpByuUy8vk8crkcisViw0lxPLLylg1o2ZMUiUQQDofNis/v9yMUCiESicDj8ZhTGOqf09HRAb/fD7/fv8Gri8le29LIKFmlKsweciEEqgZQHflDVFCrBFSl1iPsGhmNcztqo3N+t2ODg4au68hkMub+y2Qy6O/vx/DwMHK5nPmzbDZrTv0oFArIZrPm6+RXuVxGqVRCqVSCrusNDb6JOByOhn0rewnlfpZfwWAQ4XAYoVAIXV1d6O7uRmdnJ7q6uhCNRid97UVtJLIWxvWqYfael0dGjIWoHZMCtZClKoBTU+F11hoefnctsDg2YF9Xq1UMDg4iHo8jFoth7dq1SCQS5j7OZrPI5/PIZDLm/pb7OJPJmFNuisVibUn09RzjTqcTXq8XwWDQ7IENhUJoa2tDKBRCOBw2v29ra0N7ezvC4TACgYB5IolEIht2LOtV5MpVVKoGyiMjaXL0vVIVMEaOBXn8amqtp93tqO3boMcJl2PDG1O5XA7Dw8MYHBzEmjVrsHr1aiQSCcRiMfP+ovl8HsVi0TzOS6UScrkcCoUCdF1vCNZjURSloVfV4XDA6/UiEAjA7/eb05vkSTkUCiEUCqG9vR09PT3mvpX7WvaIb8j+NQyBvF41j9+ibpjHrzFSRwiMzIcYGY2X+9mpqXCM7G/ZeJ5KeJYNy+HhYbNHOpVKmfV0LpfD0NAQ+vv7MTQ0ZH7JBlI2m51wX8sRAKfTaTZy5L/t7e3w+Xzw+/1ob29HW1sb2trasGDBAnR2diIcDiMajSIcDk+5US5HcWp1sWHWEXrVgGE07l9NUeB0KPA5ayNNIY8DbufkO7cKhQLi8TgSiQTWrl2LNWvWYHBwEKlUymyky3ohlUohHo+b+ziXy5nnvvqOz/Fomga3221+rVs/yH3rdrsRCoXQ3d1t7ktZJ3R0dCAajSIQCExpFc3641eOUBZHZoNUqrV9K88Xysj+VVWYx6/sfPC7NqzuBWr179DQEFatWoVYLNZwXisWi+ZxG4vFkM1mzREaeY6rD07rO6/JtkR9/eAZabT7fD6EQiF0dnaa9YCsg8PhMLq7uzF//vwNrnsBoKhXUChVavVaOoFCIW825tdt0MuGvMPhgOZwjPzN1b68Hhf8/gDc7slfy2gYhnm8ptNpJJNJZDKZhv2aSCTMY1vWxYVCAZlMBul02hwFK5fL5nlOBsHJUFUVHo8HXq/XbD/4fD74fL6GOkQez7JNIdtx9W26np6eSQcpXdfNc4ls/9T+Lg0YAIQY6bSplKE6vVA0DYrmgKo5oI3sc4dDg9vpgMvpgM/tgmdkNHoq8vk8YrEYMpmMOfqYy+WQSCQQj8eRTCbN+ljW27K9IdvQpVIJxWJxUu03SbbbZB0t97lsG7e3t6O3txednZ3mz+RnIeshGWSnGmJnA0sDYalUgsfjqW1YUcw/AvkHICspeTINhUKIRqNob283GzbypOH1es0GujyJyJ4wORInT0q6rpsHlWx0yT92WTHUNwoGBgYwODiIvr4+xOPx9TbIWoXX60VnZycCIz1qMqzIYCkrHnmilSdX2aCsD6j1vS+ygSN7geV+LxaLZkWay+XMRrAMztlsFrFYzDwJykpbVgrywthWJ68/6O7uRnd3N/x+P9ra2hCNRhGJRNDR0WEe7zLcy4an0+k0p6vU93YpimIe5+VyGYVCwTym5b6UYVg20mTjLRaLob+/H/39/Vi7di2GhoY2qHKdCRwOh7n/fD4fOjs7zcpcNmRkkIxGo2hra4PP5zODk8fjMfev7MUFYI5mVCoV8wRaKBSQTCYbGmiycSHDh/y/PJHJRrK8QWyr8Xg86O7uNuto2Sivr7PrT6yhUMic/iQDpTyG649ZAA0j8nI0bt1retLptNkQk40H2SAuFApmA0Ie46lUCqlUasbX1Q6HA/PmzUNXV5fZIJT7VU5bc7vd8Pv9CAaDZhCqb8DL853L5Wo498n9K+sFGRRyuZzZoSmPUXnOSyQS5vluYGAAQ0NDZqdmqwoEAujp6TGPQ3kuk+c9WWcEg0Gzg0S2J2S9UN94dzgcDftXhhhZT8hznWxPZDIZM2TI47VUKpk/Hx4eRiqVMjuSW62O0DQNfr8f0WgUvb29Zj1R34he9/+yvpBTMmV7QrYf1q0f5L6trx90XUehUGgICbJuTiQSZtiTx/jQ0JDZkTHZ4NYKVFVFJBIxO/Dqz3XyPCjbFaFQyDyu628/Ur/v121TyK/6/S+DZH37We5r2XZetxND1jPZbNasa+S1ba1M0zQzyAcCAfP8KI/x+ra07KQKhULm47IdUt/+kPt/3XZd/XEv2yOpVMrcz4VCAel0GolEAolEwvxM5Nezzz5ryYxDydJAmEql0NbWZtXmppWiKAiFQujt7cW8efPMRqY8AORBEQqFzJ56+SV7JepPMOtOI5AN0XUPBPmVz+fNIJXJZMwpGfKPTIYvObc7k8mYPbytfHIHPujVlKNDXV1dZuNIVnjyJCMbTrIxJXtDZQiorxDll/wsZMUoG6vyD1HuWzl6IwOuPKnLz0NWjvUNrFgs1hJhS55kIpEI5s2bh46OjobeNLn/g8Fgw0leNrqcTmdD54ycbisrI9n4lz2r9R0yshNAVmLymK6v6GQlKPd1K3G73ejo6MCCBQswf/58s+6Qo3MySMn9LQPBuqFVHquqqpqNUtkgrb85tQxXsldVHsNyP8p9ODw8jIGBAaTTaWSzWbNR1erksSyvAZKdAbIneN68eWbDqbOz05xmFggEzPpZhqz6af71+7e+A0CeiGVjKRaLmR0vckRYdii0Ek3TzON0wYIF6O7uNverrGflqJLsWJRf9SPW8piV/8p9Wn++k73+sn6QAUt2DsqRm2QyicHBQcRiMXMEIZ1OY2hoqKWPXVVV0dPTY57bZONRzkyJRqNmZ65sVNZ3GNRfm+Z2u80GP4CGukJ2FMrOVznqUj/aK6/Bk+0L2ZkwMDCAeDze5D01dYqimB1YMrBGIhEzQLW1tTVcQ1h/zpMdXOu2I+qP7/pgVR9q5XEuG/Cy/VD/Ocg6Qp4TZX0h62r5WDKZnPGdXuvjdDpr03qjUXMGm+wgl7NY6jsR6ttz8npUeW6s3/fyeJf1i/wM6s+Nso6WIVV+H4vF0NfXZw5OyK/6Tt58Pt/kPbfhUqmUpdcRWjo2GgqFzB53OSWlviEoG4myEpInVTl9rT4ly56iUqk04R+IvC5Ppvn6cFZ/0MlpVIFAAJ2dnWbl3NXVZYYOK5P2dJKBcmhoyNy3smdY7lvZAI/H42ZFlM1mzX0tpwVOdpqEnGoph+plT0pXV5cZnGWPrTzRyd7c+hHiYDDY0hcUG4aBoaEhDAwMoK+vD8PDw2a4l1/1Pcby76C+8TmZaZiyUVA/TVCe1GQjrb7x1t3djXnz5pn/RqPRlpkKUSwWzcUCZKUuj2XZyEkmk2bPsaxn5FQ22eBc97qWdcnGlRzBkcdo/ShkNBod1QtYP+1Vhr5WUa1WzbpC7l9ZB8uRufr9XN8ZIhvtsvdyMtMFgQ+myMsTvcfjMadHyTqhs7MTHR0dCAQC8Hq9ZgOifoRNNvJm6rSeUqmEwcFBrF692pwqVT/COTw8bI7OyX0rpwTWN+DrL0lY3z6WI19y9oGceiaPV1n/9vT0mJ1tcl+GQqGWuKxDqlQqZl0wODg4akRfdpLKgJlOpxtGnWU4qh+tnuxlBfXtiWAwaHYQy+PV7XabjWDZISRH2yORCNrb22fkMbsu2W6T0y37+vrMqe/1DW05OlTfqJZtOHl+mww5HV5+yeNZtue8Xq+5H+uPW7mv582bh3nz5pmBolXbcJJhGOYsK3leq/8aHBzE8PCw2a6Q+112aq+vvTwWVVXNzl7ZnpBtCdlOqx8Bk3W23Of1dY3sVGpF5XLZrCvy+XxDnSLbbrLtIUerZXu6/m9A3mZufe0P4IO1LOoXZ5L7Wg6AyPqmra3NDNPyb0HOyLSK5YvK2EGO5tSfHK1coIUa1U+ZkdO/gA8uXq/vnaSNVz9KIUcv7ViIaC6SU2LqF2CQo3Gt1BieidZdcKGeoijmdUI8dqdO9oDX72O5b1kvbBw5bW7d85zcv7KuYD2x4cZaEKS+HcG6wT7rjqCtuyCLHOXkZ2A/OS13rAWJZmL93RKBkIiIiIiIiKw3s+IpERERERERTRsGQiIiIiIiojmKgZCIiIiIiGiOYiAkIiIiIiKaoxgIiYiIiIiI5igGQiIiIiIiojmKgZCIiIiIiGiOYiAkIiIiIiKaoxgIiYiIiIiI5igGQiIiIiIiojmKgZCIiIiIiGiOYiAkIiIiIiKaoxgIiYiIiIiI5igGQiIiIiIiojmKgZCIiIiIiGiOYiAkIiIiIiKaoxgIiYiIiIiI5qj/H0izpnABIGTjAAAAAElFTkSuQmCC;" vertex="1" parent="1">
          <mxGeometry x="125.5" y="80" width="341" height="113.67" as="geometry" />
        </mxCell>
      </root>
    </mxGraphModel>
  </diagram>
</mxfile>
